<?xml version="1.0" encoding="UTF-8"?>
<svg xmlns="http://www.w3.org/2000/svg" xmlns:xlink="http://www.w3.org/1999/xlink" width="612" height="792" viewBox="0 0 612 792">
  <defs>
    <clipPath id="clip-0">
      <path clip-rule="nonzero" d="M 6 6 L 55 6 L 55 51.75 L 6 51.75 Z M 6 6 " />
    </clipPath>
    <clipPath id="clip-1">
      <path clip-rule="nonzero" d="M 70 19 L 302.25 19 L 302.25 39 L 70 39 Z M 70 19 " />
    </clipPath>
  </defs>
<rect width="100%" height="100%" fill="#040814" />
  <g clip-path="url(#clip-0)">
    <path fill-rule="nonzero" fill="rgb(70.588684%, 41.178894%, 100%)" fill-opacity="1" d="M 40.628906 36.035156 L 54.375 37.421875 L 44.746094 26.113281 L 36.214844 25.5625 C 35 21.476562 33.691406 19.15625 30.980469 15.90625 C 24.460938 8.078125 16.648438 5.054688 6.523438 6.253906 C 4.933594 15.183594 7.074219 22.140625 13.40625 28.582031 C 16.933594 32.175781 19.832031 33.886719 24.6875 35.195312 L 26.070312 44.300781 L 37.351562 51.75 L 36.800781 39.625 L 47.246094 46.238281 Z M 35.398438 48.726562 L 28.800781 44.035156 L 26.601562 33.828125 C 21.710938 32.667969 18.90625 31.074219 15.320312 27.480469 C 9.652344 21.800781 7.625 15.964844 8.441406 7.90625 C 16.96875 7.792969 22.90625 10.339844 28.515625 16.726562 C 31.378906 19.972656 32.800781 22.464844 34.015625 26.644531 L 44.460938 28.03125 L 51.058594 35.75 L 37.578125 34.359375 L 42.527344 42.078125 L 34.542969 36.015625 Z M 35.398438 48.726562 " />
  </g>
  <path fill-rule="nonzero" fill="rgb(70.588684%, 41.178894%, 100%)" fill-opacity="1" d="M 18.355469 14.804688 C 15.265625 12.828125 12.230469 17.503906 15.320312 19.5 C 18.390625 21.476562 21.425781 16.800781 18.355469 14.804688 Z M 15.09375 18.226562 C 13.386719 16.136719 16.574219 13.476562 18.277344 15.585938 C 20.003906 17.675781 16.800781 20.316406 15.09375 18.226562 Z M 15.09375 18.226562 " />
  <path fill-rule="nonzero" fill="rgb(70.588684%, 41.178894%, 100%)" fill-opacity="1" d="M 24.117188 20.050781 C 21.046875 18.074219 18.011719 22.75 21.085938 24.746094 C 24.175781 26.722656 27.207031 22.027344 24.117188 20.050781 Z M 20.933594 23.527344 C 19.226562 21.4375 22.410156 18.777344 24.117188 20.886719 C 25.824219 22.976562 22.640625 25.617188 20.933594 23.527344 Z M 20.933594 23.527344 " />
  <path fill-rule="nonzero" fill="rgb(70.588684%, 41.178894%, 100%)" fill-opacity="1" d="M 30.164062 26.113281 C 27.09375 24.136719 24.0625 28.8125 27.132812 30.808594 C 30.222656 32.785156 33.253906 28.089844 30.164062 26.113281 Z M 30.277344 27.15625 C 31.984375 29.25 28.800781 31.910156 27.09375 29.800781 C 25.386719 27.710938 28.574219 25.066406 30.277344 27.15625 Z M 30.277344 27.15625 " />
  <path fill-rule="nonzero" fill="rgb(70.588684%, 41.178894%, 100%)" fill-opacity="1" d="M 33.371094 27.273438 L 37.332031 33.335938 L 34.792969 27.5 Z M 33.371094 27.273438 " />
  <path fill-rule="nonzero" fill="rgb(70.588684%, 41.178894%, 100%)" fill-opacity="1" d="M 27.304688 34.226562 L 33.917969 35.539062 L 26.980469 32.898438 Z M 27.304688 34.226562 " />
  <g clip-path="url(#clip-1)">
    <path fill-rule="nonzero" fill="rgb(70.588684%, 41.178894%, 100%)" fill-opacity="1" d="M 70.125 19.734375 L 83.898438 19.734375 L 83.898438 22.679688 L 70.125 22.679688 Z M 70.125 27.414062 L 73.066406 27.414062 L 73.066406 38.195312 L 70.125 38.195312 Z M 70.125 27.414062 L 82.542969 27.414062 L 82.542969 30.320312 L 70.125 30.320312 Z M 102.121094 38.195312 L 105.605469 38.195312 L 98.871094 19.695312 L 95.351562 19.695312 L 99.257812 30.75 Z M 87.882812 38.195312 L 91.289062 38.195312 L 95.3125 28.34375 L 93.648438 23.921875 Z M 119.070312 19.734375 C 117.648438 19.734375 116.335938 19.964844 115.121094 20.429688 C 113.9375 20.898438 112.902344 21.542969 112.027344 22.371094 C 111.175781 23.144531 110.503906 24.128906 110.015625 25.316406 C 109.601562 26.328125 109.371094 27.425781 109.320312 28.613281 L 109.320312 29.777344 L 112.722656 29.777344 L 112.722656 28.613281 C 112.773438 27.734375 112.917969 27.023438 113.148438 26.480469 C 113.457031 25.730469 113.882812 25.058594 114.425781 24.464844 C 115.070312 23.871094 115.742188 23.429688 116.4375 23.144531 C 117.238281 22.835938 118.113281 22.679688 119.070312 22.679688 L 123.945312 22.679688 L 123.945312 19.734375 Z M 120.539062 28.460938 L 120.539062 29.195312 L 120.578125 29.195312 C 120.527344 30.023438 120.371094 30.785156 120.113281 31.484375 C 119.777344 32.285156 119.351562 32.945312 118.835938 33.464844 C 118.269531 34.03125 117.597656 34.472656 116.824219 34.78125 C 116.023438 35.09375 115.148438 35.246094 114.195312 35.246094 L 109.320312 35.246094 L 109.320312 38.195312 L 114.195312 38.195312 C 115.613281 38.195312 116.929688 37.960938 118.140625 37.496094 C 119.328125 37.03125 120.359375 36.386719 121.234375 35.558594 C 122.136719 34.652344 122.808594 33.671875 123.246094 32.609375 C 123.710938 31.574219 123.945312 30.4375 123.945312 29.195312 L 123.945312 28.460938 Z M 138.066406 22.757812 L 143.90625 22.757812 L 143.90625 19.734375 L 128.972656 19.734375 L 128.972656 22.757812 Z M 134.816406 25.785156 L 138.066406 25.785156 L 138.066406 38.195312 L 134.816406 38.195312 Z M 162.90625 23.378906 C 162.570312 22.65625 162.105469 22.007812 161.511719 21.441406 C 160.894531 20.898438 160.160156 20.46875 159.308594 20.160156 C 158.378906 19.875 157.398438 19.734375 156.367188 19.734375 L 149.132812 19.734375 L 149.132812 22.640625 L 156.097656 22.640625 C 157.257812 22.640625 158.222656 22.925781 158.996094 23.496094 C 159.71875 24.039062 160.082031 24.867188 160.082031 25.976562 C 160.082031 26.984375 159.734375 27.800781 159.035156 28.421875 C 158.289062 29.015625 157.308594 29.3125 156.097656 29.3125 L 149.132812 29.3125 L 149.132812 38.195312 L 152.34375 38.195312 L 152.34375 32.261719 L 155.980469 32.261719 C 156.933594 32.261719 157.902344 32.117188 158.882812 31.835938 C 159.785156 31.550781 160.558594 31.148438 161.203125 30.632812 C 161.875 30.113281 162.402344 29.457031 162.789062 28.652344 C 163.175781 27.878906 163.371094 26.972656 163.371094 25.9375 C 163.371094 24.957031 163.214844 24.101562 162.90625 23.378906 Z M 183.875 38.195312 L 178.882812 31.214844 C 179.554688 31.007812 180.148438 30.761719 180.664062 30.476562 C 181.230469 30.113281 181.695312 29.714844 182.058594 29.273438 C 182.46875 28.78125 182.765625 28.253906 182.945312 27.683594 C 183.179688 27.0625 183.296875 26.367188 183.296875 25.589844 C 183.296875 24.683594 183.140625 23.871094 182.832031 23.144531 C 182.519531 22.449219 182.070312 21.839844 181.476562 21.324219 C 180.910156 20.832031 180.1875 20.445312 179.308594 20.160156 C 178.40625 19.875 177.453125 19.734375 176.445312 19.734375 L 168.242188 19.734375 L 168.242188 22.679688 L 176.175781 22.679688 C 177.386719 22.679688 178.328125 22.9375 179 23.457031 C 179.671875 23.972656 180.007812 24.75 180.007812 25.785156 C 180.007812 26.738281 179.671875 27.488281 179 28.03125 C 178.328125 28.601562 177.402344 28.886719 176.214844 28.886719 L 168.242188 28.886719 L 168.242188 38.195312 L 171.457031 38.195312 L 171.457031 31.757812 L 175.519531 31.757812 L 180.042969 38.195312 Z M 194.554688 35.246094 C 194.167969 35.167969 193.804688 35.054688 193.472656 34.898438 C 192.75 34.5625 192.117188 34.097656 191.574219 33.503906 C 191.058594 32.957031 190.644531 32.285156 190.335938 31.484375 C 190.054688 30.683594 189.910156 29.867188 189.910156 29.042969 L 189.910156 28.847656 C 189.910156 27.996094 190.054688 27.167969 190.335938 26.367188 C 190.671875 25.539062 191.085938 24.878906 191.574219 24.386719 C 192.089844 23.792969 192.710938 23.339844 193.433594 23.03125 C 193.871094 22.824219 194.246094 22.695312 194.554688 22.640625 L 194.554688 19.734375 C 193.652344 19.863281 192.851562 20.082031 192.15625 20.390625 C 191.019531 20.882812 190.054688 21.542969 189.253906 22.371094 C 188.453125 23.199219 187.820312 24.179688 187.359375 25.316406 C 186.894531 26.457031 186.660156 27.644531 186.660156 28.886719 L 186.660156 29.082031 C 186.660156 30.347656 186.894531 31.535156 187.359375 32.648438 C 187.769531 33.761719 188.390625 34.730469 189.214844 35.558594 C 190.039062 36.410156 191.007812 37.070312 192.117188 37.535156 C 192.8125 37.847656 193.625 38.066406 194.554688 38.195312 Z M 205.078125 28.964844 L 205.078125 28.847656 C 205.078125 27.582031 204.847656 26.390625 204.382812 25.28125 C 203.917969 24.140625 203.285156 23.160156 202.484375 22.332031 C 201.710938 21.503906 200.757812 20.859375 199.621094 20.394531 C 198.976562 20.082031 198.191406 19.863281 197.261719 19.734375 L 197.261719 22.679688 L 197.726562 22.835938 C 197.957031 22.914062 198.140625 22.976562 198.269531 23.03125 C 198.992188 23.367188 199.621094 23.832031 200.164062 24.425781 C 200.679688 24.96875 201.09375 25.640625 201.402344 26.441406 C 201.6875 27.246094 201.828125 28.058594 201.828125 28.886719 L 201.828125 29.082031 C 201.828125 29.933594 201.6875 30.761719 201.402344 31.5625 C 201.066406 32.390625 200.65625 33.050781 200.164062 33.539062 C 199.648438 34.136719 199.03125 34.589844 198.308594 34.898438 C 197.972656 35.054688 197.625 35.167969 197.261719 35.246094 L 197.261719 38.195312 C 198.035156 38.089844 198.808594 37.871094 199.582031 37.535156 C 200.640625 37.097656 201.609375 36.4375 202.484375 35.558594 C 203.335938 34.652344 203.96875 33.671875 204.382812 32.609375 C 204.847656 31.472656 205.078125 30.28125 205.078125 29.042969 Z M 221.171875 34.550781 C 220.890625 35.324219 220.476562 35.996094 219.933594 36.566406 C 219.417969 37.082031 218.773438 37.484375 218 37.769531 C 217.226562 38.054688 216.402344 38.195312 215.523438 38.195312 C 214.183594 38.195312 213.023438 37.910156 212.042969 37.339844 C 211.113281 36.773438 210.339844 36.074219 209.722656 35.246094 L 211.847656 33.074219 C 212.261719 33.671875 212.804688 34.199219 213.472656 34.664062 C 214.066406 35.027344 214.738281 35.207031 215.484375 35.207031 C 216.335938 35.207031 217.035156 34.925781 217.574219 34.355469 C 218.089844 33.761719 218.347656 32.855469 218.347656 31.640625 L 218.347656 19.734375 L 221.636719 19.734375 L 221.636719 31.757812 C 221.636719 32.84375 221.484375 33.773438 221.171875 34.550781 Z M 228.601562 19.734375 L 242.375 19.734375 L 242.375 22.679688 L 228.601562 22.679688 Z M 228.601562 35.246094 L 242.335938 35.246094 L 242.335938 38.195312 L 228.601562 38.195312 Z M 228.601562 27.414062 L 241.019531 27.414062 L 241.019531 30.320312 L 228.601562 30.320312 Z M 248.992188 25.242188 C 249.457031 24.101562 250.125 23.132812 251.003906 22.332031 C 251.804688 21.53125 252.835938 20.882812 254.097656 20.394531 C 255.363281 19.902344 256.691406 19.65625 258.082031 19.65625 L 262.378906 19.65625 L 262.378906 22.601562 L 258.121094 22.601562 C 257.117188 22.601562 256.226562 22.769531 255.453125 23.109375 C 254.628906 23.445312 253.957031 23.882812 253.441406 24.425781 C 252.898438 24.945312 252.460938 25.617188 252.125 26.441406 C 251.816406 27.191406 251.660156 28.035156 251.660156 28.964844 C 251.660156 29.894531 251.816406 30.734375 252.125 31.484375 C 252.433594 32.261719 252.875 32.933594 253.441406 33.503906 C 253.957031 34.019531 254.628906 34.445312 255.453125 34.78125 C 256.277344 35.09375 257.167969 35.246094 258.121094 35.246094 L 262.378906 35.246094 L 262.378906 38.195312 L 258.082031 38.195312 C 256.640625 38.195312 255.324219 37.960938 254.136719 37.496094 C 252.898438 36.980469 251.855469 36.320312 251.003906 35.519531 C 250.125 34.691406 249.457031 33.707031 248.992188 32.570312 C 248.5 31.382812 248.257812 30.167969 248.257812 28.925781 C 248.257812 27.605469 248.5 26.378906 248.992188 25.242188 Z M 276.734375 22.757812 L 282.574219 22.757812 L 282.574219 19.734375 L 267.640625 19.734375 L 267.640625 22.757812 Z M 273.484375 25.785156 L 276.734375 25.785156 L 276.734375 38.195312 L 273.484375 38.195312 Z M 297.355469 19.734375 C 295.9375 19.734375 294.621094 19.964844 293.410156 20.429688 C 292.222656 20.898438 291.191406 21.542969 290.3125 22.371094 C 289.460938 23.144531 288.792969 24.128906 288.300781 25.316406 C 287.886719 26.328125 287.65625 27.425781 287.605469 28.613281 L 287.605469 29.777344 L 291.007812 29.777344 L 291.007812 28.613281 C 291.0625 27.734375 291.203125 27.023438 291.433594 26.480469 C 291.746094 25.730469 292.171875 25.058594 292.710938 24.464844 C 293.355469 23.871094 294.027344 23.429688 294.722656 23.144531 C 295.523438 22.835938 296.402344 22.679688 297.355469 22.679688 L 302.230469 22.679688 L 302.230469 19.734375 Z M 298.824219 28.460938 L 298.824219 29.195312 L 298.863281 29.195312 C 298.8125 30.023438 298.65625 30.785156 298.398438 31.484375 C 298.0625 32.285156 297.640625 32.945312 297.121094 33.464844 C 296.554688 34.03125 295.886719 34.472656 295.109375 34.78125 C 294.3125 35.09375 293.433594 35.246094 292.480469 35.246094 L 287.605469 35.246094 L 287.605469 38.195312 L 292.480469 38.195312 C 293.898438 38.195312 295.214844 37.960938 296.425781 37.496094 C 297.613281 37.03125 298.644531 36.386719 299.523438 35.558594 C 300.425781 34.652344 301.09375 33.671875 301.535156 32.609375 C 301.996094 31.574219 302.230469 30.4375 302.230469 29.195312 L 302.230469 28.460938 Z M 298.824219 28.460938 " />
  </g>
</svg>